<?xml version="1.0" encoding="UTF-8" standalone="no"?>
<!-- Created with Inkscape (http://www.inkscape.org/) -->

<svg
   xmlns:dc="http://purl.org/dc/elements/1.1/"
   xmlns:cc="http://creativecommons.org/ns#"
   xmlns:rdf="http://www.w3.org/1999/02/22-rdf-syntax-ns#"
   xmlns:svg="http://www.w3.org/2000/svg"
   xmlns="http://www.w3.org/2000/svg"
   xmlns:xlink="http://www.w3.org/1999/xlink"
   xmlns:sodipodi="http://sodipodi.sourceforge.net/DTD/sodipodi-0.dtd"
   xmlns:inkscape="http://www.inkscape.org/namespaces/inkscape"
   width="1920px"
   height="1080px"
   viewBox="0 0 1920 1080"
   version="1.1"
   id="SVGRoot"
   inkscape:version="0.92.4 (5da689c313, 2019-01-14)"
   sodipodi:docname="bg1.svg">
  <defs
     id="defs815">
    <inkscape:path-effect
       effect="spiro"
       id="path-effect1678"
       is_visible="true" />
    <inkscape:path-effect
       effect="spiro"
       id="path-effect1674"
       is_visible="true" />
    <inkscape:path-effect
       effect="spiro"
       id="path-effect1670"
       is_visible="true" />
    <linearGradient
       inkscape:collect="always"
       id="linearGradient1581">
      <stop
         style="stop-color:#7cffcb;stop-opacity:1"
         offset="0"
         id="stop1577" />
      <stop
         style="stop-color:#2e6dff;stop-opacity:1"
         offset="1"
         id="stop1579" />
    </linearGradient>
    <inkscape:path-effect
       effect="spiro"
       id="path-effect1450"
       is_visible="true" />
    <inkscape:path-effect
       effect="spiro"
       id="path-effect1431"
       is_visible="true" />
    <inkscape:path-effect
       effect="spiro"
       id="path-effect1419"
       is_visible="true" />
    <inkscape:path-effect
       effect="spiro"
       id="path-effect1415"
       is_visible="true" />
    <inkscape:path-effect
       effect="spiro"
       id="path-effect1407"
       is_visible="true" />
    <inkscape:path-effect
       effect="spiro"
       id="path-effect1397"
       is_visible="true" />
    <inkscape:path-effect
       effect="spiro"
       id="path-effect1385"
       is_visible="true" />
    <linearGradient
       gradientTransform="matrix(-0.01384771,0.21245652,-0.21245652,-0.01384771,2020.5844,732.56257)"
       inkscape:collect="always"
       xlink:href="#linearGradient1581"
       id="linearGradient1587-8"
       x1="1485.3735"
       y1="255.98141"
       x2="2268.1589"
       y2="-301.12323"
       gradientUnits="userSpaceOnUse" />
    <linearGradient
       gradientTransform="matrix(-0.07169806,0.20047174,0.20047174,0.07169806,248.62585,390.34518)"
       inkscape:collect="always"
       xlink:href="#linearGradient1581"
       id="linearGradient1587-8-0"
       x1="1485.3735"
       y1="255.98141"
       x2="2268.1589"
       y2="-301.12323"
       gradientUnits="userSpaceOnUse" />
    <linearGradient
       inkscape:collect="always"
       xlink:href="#linearGradient1581"
       id="linearGradient1654"
       gradientUnits="userSpaceOnUse"
       gradientTransform="matrix(-0.01384771,0.21245652,-0.21245652,-0.01384771,290.13248,506.34044)"
       x1="1485.3735"
       y1="255.98141"
       x2="2268.1589"
       y2="-301.12323" />
    <linearGradient
       inkscape:collect="always"
       xlink:href="#linearGradient1581"
       id="linearGradient1702"
       x1="-610.40784"
       y1="280.62323"
       x2="-398.1532"
       y2="280.62323"
       gradientUnits="userSpaceOnUse"
       gradientTransform="matrix(-0.98066106,1.3853474,-1.3853474,-0.98066106,662.44248,2224.6263)" />
    <linearGradient
       inkscape:collect="always"
       xlink:href="#linearGradient1581"
       id="linearGradient1710"
       x1="-578.58362"
       y1="557.94067"
       x2="-402.22522"
       y2="557.94067"
       gradientUnits="userSpaceOnUse"
       gradientTransform="matrix(-1.1127505,-0.03849586,-0.02133992,2.0073313,1246.096,137.48661)" />
    <linearGradient
       inkscape:collect="always"
       xlink:href="#linearGradient1581"
       id="linearGradient1718"
       x1="-383.95975"
       y1="483.99295"
       x2="-252.80853"
       y2="315.56226"
       gradientUnits="userSpaceOnUse"
       gradientTransform="matrix(-0.91372643,-2.7353514,-2.7353514,0.91372643,1677.4523,-1178.9586)" />
  </defs>
  <sodipodi:namedview
     id="base"
     pagecolor="#ffffff"
     bordercolor="#666666"
     borderopacity="1.0"
     inkscape:pageopacity="0.0"
     inkscape:pageshadow="2"
     inkscape:zoom="0.70710678"
     inkscape:cx="755.60782"
     inkscape:cy="791.43058"
     inkscape:document-units="px"
     inkscape:current-layer="layer1"
     showgrid="false"
     inkscape:window-width="1920"
     inkscape:window-height="1003"
     inkscape:window-x="-9"
     inkscape:window-y="-9"
     inkscape:window-maximized="1" />
  <metadata
     id="metadata818">
    <rdf:RDF>
      <cc:Work
         rdf:about="">
        <dc:format>image/svg+xml</dc:format>
        <dc:type
           rdf:resource="http://purl.org/dc/dcmitype/StillImage" />
        <dc:title></dc:title>
      </cc:Work>
    </rdf:RDF>
  </metadata>
  <g
     inkscape:label="Layer 1"
     inkscape:groupmode="layer"
     id="layer1">
    <rect
       style="opacity:1;fill:#2e6dff;fill-opacity:1;stroke:none;stroke-width:18.89763832;stroke-linecap:round;stroke-linejoin:miter;stroke-miterlimit:4;stroke-dasharray:none;stroke-dashoffset:0;stroke-opacity:1;paint-order:fill markers stroke"
       id="rect1425"
       width="2118.75"
       height="1323.75"
       x="-3.75"
       y="2.2942004e-10" />
    <path
       style="fill:url(#linearGradient1718);fill-opacity:1;stroke:none;stroke-width:2.8839283px;stroke-linecap:butt;stroke-linejoin:miter;stroke-opacity:1"
       d="m 1238.219,-242.10588 c 16.7503,23.5886 29.9893,49.884 37.024,77.9471 7.0342,28.0629 7.7127,57.946 0.033,85.839298 -7.6808,27.893099 -23.9651,53.6598 -47.0773,71.0618006 -23.1125,17.4023924 -53.1192,25.9755924 -81.7091,21.5445924 -29.2605,-4.5353 -54.7426,-21.6467924 -81.5419,-34.239292 -13.3993,-6.296401 -27.4552,-11.557701 -42.139,-13.448201 -14.6837,-1.8908 -30.1121,-0.2286 -43.2043,6.6841 -9.8349,5.1925 -18.0366,13.170301 -24.404,22.2883996 -6.3674,9.118593 -10.971,19.3681934 -14.6058,29.8789934 -7.2694,21.022 -10.7879,43.2551 -18.954,63.94541 -8.4296,21.358499 -22.0917,41.050299 -40.9363,54.169999 -18.8445,13.1194 -43.1336,19.12348 -65.4231,13.6088 -15.1658,-3.7518 -28.9194,-12.6804 -38.928,-24.6766 -10.0088,-11.9957 -16.29404,-26.9644 -18.37784,-42.447899 -2.08394,-15.48331 -0.021,-31.44091 5.4299,-46.08211 5.45114,-14.641 14.24354,-27.9674 25.17774,-39.1258004 24.2374,-24.7343916 57.4886,-37.9253926 88.062,-54.1889936 15.2865,-8.131799 30.1996,-17.245599 42.9568,-28.952699 12.7571,-11.7076 23.3328,-26.184798 28.5051,-42.709308 5.1166,-16.34719 4.7648,-33.83569 7.2222,-50.78769 6.7153,-46.3225 35.4645,-88.4817 74.893,-113.7053 23.6719,-15.1441 51.1865,-24.5038 79.2599,-25.763 28.0731,-1.2592 56.6326,5.7386 80.3412,20.8245 19.3575,12.3166 35.1122,29.6272 48.3963,48.3339 z"
       id="path1676"
       inkscape:connector-curvature="0" />
    <path
       style="fill:#ffffff;fill-opacity:1;stroke:none;stroke-width:1px;stroke-linecap:butt;stroke-linejoin:miter;stroke-opacity:1"
       d="m 1507.3735,296.9814 c 72.0523,11.3395 145.3803,-1.25507 217.9474,-8.61195 72.5672,-7.35688 148.9968,-8.81429 214.8259,22.59681 43.609,20.80853 79.4951,54.66352 113.184,89.3015 33.6891,34.63797 66.3355,70.92828 106.0623,98.43328 75.5965,52.33966 175.4694,68.43449 263.2945,41.21273 87.8251,-27.22178 161.4345,-97.57105 191.3526,-184.51459 26.3753,-76.64782 19.1924,-161.97653 -7.2115,-238.6145 C 2580.4248,40.1467 2535.8895,-28.9332 2487.655,-94.07905 2377.6102,-242.70636 2243.2069,-377.31383 2078.4715,-461.3504 c -164.7355,-84.03656 -362.6351,-113.29108 -537.2653,-52.42906 -87.3152,30.43104 -167.3322,82.98998 -227.0705,153.56848 -59.7382,70.5785 -98.6261,159.29163 -106.2954,251.43913 -7.6693,92.14751 16.588,187.25308 70.5144,262.36583 53.9263,75.11276 137.677,129.01217 229.0188,143.38742 z"
       id="path1405"
       inkscape:connector-curvature="0" />
    <path
       style="fill:url(#linearGradient1587-8-0);fill-opacity:1;stroke:none;stroke-width:0.21290733px;stroke-linecap:butt;stroke-linejoin:miter;stroke-opacity:1"
       d="m 196.01282,727.7428 c -2.89268,15.25751 -10.67503,29.05469 -17.35277,43.07487 -6.67784,14.02016 -12.4498,29.23765 -10.87257,44.6867 1.04478,10.2342 5.25879,19.85578 9.78735,29.09287 4.52847,9.23728 9.46302,18.38382 12.1286,28.32001 5.07246,18.90762 1.13834,40.08332 -10.61574,55.73794 -11.75404,15.65475 -31.1348,25.36745 -50.70954,25.13145 C 111.12132,953.57873 94.530364,946.02081 81.059684,935.23279 67.589135,924.44472 56.933645,910.56376 47.332054,896.22329 25.426402,863.50608 8.077854,826.91097 3.04213,787.86093 -1.993593,748.81088 6.330711,707.04005 31.052552,676.39538 c 12.360843,-15.32241 28.634453,-27.59519 47.066552,-34.51071 18.43218,-6.91545 39.004776,-8.35085 58.027676,-3.28151 19.02281,5.06931 36.34959,16.75109 47.54119,32.94728 11.19153,16.19612 15.99214,36.85027 12.32485,56.19236 z"
       id="path1405-3-7"
       inkscape:connector-curvature="0"
       inkscape:transform-center-x="84.852814"
       inkscape:transform-center-y="-342.06291" />
    <path
       inkscape:connector-curvature="0"
       id="path1652"
       d="m 204.37178,836.8709 c -3.407,15.15096 -1.7466,30.90438 -1.1885,46.42361 0.5582,15.51924 -0.1906,31.7774 -7.7757,45.32824 -5.0247,8.97687 -12.7144,16.13229 -20.54,22.81006 -7.8256,6.67782 -15.9878,13.11121 -22.3815,21.17054 -12.1667,15.3362 -16.9692,36.33195 -12.4019,55.36805 4.5672,19.0359 18.4941,35.6489 36.5515,43.2091 15.9191,6.665 34.1472,6.3205 50.7951,1.7721 16.6478,-4.5484 31.941,-13.0535 46.4496,-22.3992 33.10079,-21.3215 63.56019,-48.0124 83.69549,-81.84785 20.1353,-33.83541 29.09108,-75.47537 18.57877,-113.41948 -5.25615,-18.97209 -15.31459,-36.70004 -29.48217,-50.36919 -14.1677,-13.66912 -32.4768,-23.15958 -51.94799,-26.06501 -19.4711,-2.90542 -40.0128,0.9312 -56.7178,11.34808 -16.7049,10.41686 -29.316,27.46385 -33.6349,46.67095 z"
       style="fill:url(#linearGradient1654);fill-opacity:1;stroke:none;stroke-width:0.21290733px;stroke-linecap:butt;stroke-linejoin:miter;stroke-opacity:1" />
    <path
       style="fill:url(#linearGradient1587-8);fill-opacity:1;stroke:none;stroke-width:0.21290733px;stroke-linecap:butt;stroke-linejoin:miter;stroke-opacity:1"
       d="m 1934.8237,1063.093 c -3.407,15.151 -1.7466,30.9044 -1.1885,46.4236 0.5582,15.5193 -0.1906,31.7774 -7.7757,45.3283 -5.0247,8.9768 -12.7144,16.1323 -20.54,22.81 -7.8256,6.6779 -15.9878,13.1112 -22.3815,21.1706 -12.1667,15.3362 -16.9692,36.332 -12.4019,55.368 4.5672,19.0359 18.4941,35.6489 36.5515,43.2092 15.9191,6.665 34.1472,6.3205 50.7951,1.7721 16.6478,-4.5484 31.941,-13.0536 46.4496,-22.3993 33.1008,-21.3216 63.5602,-48.0124 83.6955,-81.8478 20.1353,-33.8354 29.0911,-75.4754 18.5788,-113.4195 -5.2562,-18.9721 -15.3146,-36.7 -29.4822,-50.3692 -14.1677,-13.6691 -32.4768,-23.1596 -51.948,-26.065 -19.4711,-2.9054 -40.0128,0.9312 -56.7178,11.3481 -16.7049,10.4168 -29.316,27.4638 -33.6349,46.6709 z"
       id="path1405-3"
       inkscape:connector-curvature="0" />
    <path
       style="fill:url(#linearGradient1710);fill-opacity:1;stroke:none;stroke-width:1.49481785px;stroke-linecap:butt;stroke-linejoin:miter;stroke-opacity:1"
       d="m 1811.9449,1053.1745 c 14.9843,0.2496 30.3758,4.0665 43.4041,17.4223 6.5141,6.6778 12.3394,15.7181 16.5878,26.8514 4.2482,11.1334 6.8732,24.4018 7.0238,37.9152 0.1402,12.5976 -1.8648,25.1386 -5.3059,36.1036 -3.4411,10.9652 -8.2828,20.3921 -13.8041,28.1096 -11.043,15.4351 -24.54,23.9227 -37.9554,30.9513 -13.4155,7.0286 -27.1354,12.9346 -39.6454,24.1505 -6.255,5.6079 -12.1805,12.5462 -17.2496,21.2153 -5.069,8.6687 -9.2696,19.1121 -11.8333,30.8329 -3.36,15.3607 -3.8097,32.3271 -3.1018,48.791 0.7081,16.4637 2.525,32.7063 3.5465,49.1162 1.0215,16.4102 1.2259,33.2751 -1.239,49.1782 -1.2324,7.9518 -3.1342,15.6016 -5.8007,22.3122 -2.6666,6.7106 -6.1107,12.4669 -10.1387,16.3877 -4.2794,4.1663 -9.1676,6.1982 -14.0302,6.1198 -4.8625,-0.078 -9.6938,-2.2413 -14.0841,-6.0124 -8.7811,-7.5424 -15.6254,-21.3538 -19.9484,-37.0697 -4.3231,-15.7156 -6.2722,-33.2709 -6.9357,-50.7743 -0.6633,-17.5034 -0.085,-35.0721 0.4079,-52.5939 1.1536,-41.0546 1.8468,-82.3722 6.3991,-122.651 4.5522,-40.2787 13.2496,-79.9594 28.5474,-110.4268 11.7531,-23.4076 27.0653,-40.5984 43.544,-51.2645 16.4788,-10.666 34.1051,-14.9565 51.6117,-14.6646 z"
       id="path1668"
       inkscape:connector-curvature="0" />
    <path
       style="fill:url(#linearGradient1702);fill-opacity:1;stroke:none;stroke-width:1.69731665px;stroke-linecap:butt;stroke-linejoin:miter;stroke-opacity:1"
       d="m 805.75244,1482.3987 c -5.36574,-15.5847 -4.22266,-32.866 0.57984,-48.6335 4.80232,-15.7674 13.07374,-30.2428 21.92141,-44.1494 8.84785,-13.9066 18.35962,-27.4339 25.9908,-42.0436 7.63102,-14.6096 13.38526,-30.5201 14.04158,-46.9897 0.97171,-24.3823 -9.98769,-48.9822 -28.82835,-64.4892 -18.84065,-15.5072 -45.14045,-21.5289 -68.8277,-15.6681 -18.36915,4.5449 -34.41199,15.5434 -49.47162,27.0014 -15.05944,11.4583 -29.81314,23.7238 -47.07142,31.4844 -25.59601,11.5099 -55.73891,12.0905 -82.05688,2.3438 -26.31779,-9.7466 -48.61858,-29.5499 -62.14585,-54.1393 -13.52741,-24.5893 -18.3286,-53.7228 -14.24178,-81.4883 4.08688,-27.7656 16.91393,-54.0585 35.6532,-74.9505 32.10395,-35.7913 80.85299,-54.7547 128.93255,-54.5287 48.07937,0.2258 95.15032,18.6137 133.62467,47.4479 38.4745,28.834 68.71316,67.6885 91.55792,109.9944 22.84512,42.306 38.57212,88.1069 51.32774,134.464 7.93991,28.8552 14.80536,58.2926 15.35549,88.2153 0.54998,29.9227 -5.60008,60.6183 -21.9533,85.6831 -8.17653,12.5323 -18.84398,23.5099 -31.48541,31.5166 -12.64158,8.0069 -27.27455,12.9875 -42.21978,13.7342 -14.94521,0.7465 -30.16775,-2.8208 -42.91397,-10.6597 -12.74653,-7.8387 -22.89785,-19.9962 -27.76914,-34.1451 z"
       id="path1672"
       inkscape:connector-curvature="0" />
    <path
       style="fill:#ffffff;fill-opacity:1;stroke:none;stroke-width:1.03337836px;stroke-linecap:butt;stroke-linejoin:miter;stroke-opacity:1"
       d="m -116.93423,512.47448 c 15.52975,24.14632 22.47328,53.04008 25.63144,81.72356 3.15814,28.68349 2.79411,57.65106 5.0914,86.41929 3.62178,45.35441 14.12876,90.74017 36.1399,130.34223 22.01114,39.60204 56.2607399,73.11824 98.272515,88.63454 33.263959,12.2854 69.373885,12.9056 104.579065,16.5295 17.6026,1.812 35.20563,4.4236 52.14177,9.634 16.93614,5.2103 33.25134,13.1073 46.81797,24.6703 25.57004,21.7939 39.49915,55.0196 45.45775,88.4265 5.9586,33.4069 4.81463,67.6316 5.33297,101.5809 0.51834,33.9492 2.8663,68.5582 15.28224,100.0703 6.20796,15.756 14.93831,30.5858 26.46452,42.8525 11.5262,12.2666 25.91347,21.9108 41.87494,26.8173 19.81155,6.0901 41.42445,4.6774 61.10469,-1.8392 19.68025,-6.5165 37.54243,-17.9317 53.42306,-31.4427 31.76124,-27.0222 55.78892,-62.1654 85.1707,-91.8476 52.27892,-52.8136 122.46439,-87.6683 195.8581,-93.8472 95.81896,-8.0668 189.18372,31.4404 273.9831,77.5768 84.7994,46.1364 166.99,100.2938 259.8262,125.7587 102.6333,28.1523 211.9625,19.2005 315.7493,-4.1601 103.7866,-23.3605 203.9787,-60.7019 306.3882,-89.687 56.1594,-15.8949 114.0145,-29.3753 172.1904,-25.6856 29.088,1.8449 58.0522,8.0539 84.7453,19.9661 26.693,11.9123 51.0766,29.6447 69.4945,52.6431 23.4182,29.2424 36.5794,66.4943 38.5809,104.1711 2.0014,37.6769 -6.9218,75.6552 -23.8832,109.2026 -33.9231,67.0949 -98.4514,114.4273 -168.3674,139.4643 -69.9161,25.0371 -145.2636,29.8138 -219.3673,28.5533 -74.1036,-1.2605 -148.1389,-8.3199 -222.218,-6.0027 -200.2711,6.2645 -391.4593,80.2743 -584.0331,136.6143 -96.28692,28.17 -194.22437,52.1533 -294.0269,61.0323 -99.80252,8.8789 -201.89567,2.2882 -297.08862,-29.5037 C 328.50906,1735.9788 195.28677,1609.2239 88.108489,1469.8734 -19.06979,1330.523 -105.65791,1175.7197 -212.9431,1036.4545 c -44.1956,-57.3696 -91.97963,-112.216 -129.70701,-174.1889 -37.72738,-61.97295 -65.33296,-132.75778 -63.92339,-205.65674 0.7048,-36.44948 8.80838,-72.95809 25.37691,-105.27639 16.56852,-32.31831 41.77392,-60.30139 72.98333,-78.16894 31.2094,-17.86756 68.44397,-25.25691 103.6612,-18.68138 35.21723,6.57552 68.00248,27.49357 87.61783,57.99233 z"
       id="path1448"
       inkscape:connector-curvature="0" />
    <rect
       style="opacity:1;fill:#2e6dff;fill-opacity:1;stroke:none;stroke-width:10.22897625;stroke-linecap:round;stroke-linejoin:miter;stroke-miterlimit:4;stroke-dasharray:none;stroke-dashoffset:0;stroke-opacity:1;paint-order:fill markers stroke"
       id="rect1724"
       width="262.20404"
       height="35.620502"
       x="951.07599"
       y="-0.65845799" />
  </g>
</svg>
