<?xml version="1.0" encoding="UTF-8" standalone="no"?>
<!-- Created with Inkscape (http://www.inkscape.org/) -->

<svg
   xmlns:dc="http://purl.org/dc/elements/1.1/"
   xmlns:cc="http://creativecommons.org/ns#"
   xmlns:rdf="http://www.w3.org/1999/02/22-rdf-syntax-ns#"
   xmlns:svg="http://www.w3.org/2000/svg"
   xmlns="http://www.w3.org/2000/svg"
   xmlns:xlink="http://www.w3.org/1999/xlink"
   xmlns:sodipodi="http://sodipodi.sourceforge.net/DTD/sodipodi-0.dtd"
   xmlns:inkscape="http://www.inkscape.org/namespaces/inkscape"
   width="1920px"
   height="1500px"
   viewBox="0 0 1920 1500"
   version="1.1"
   id="SVGRoot"
   inkscape:version="0.92.4 (5da689c313, 2019-01-14)"
   sodipodi:docname="bgf.svg">
  <defs
     id="defs1726">
    <inkscape:path-effect
       effect="spiro"
       id="path-effect951"
       is_visible="true" />
    <inkscape:path-effect
       effect="spiro"
       id="path-effect930"
       is_visible="true" />
    <inkscape:path-effect
       effect="spiro"
       id="path-effect912"
       is_visible="true" />
    <inkscape:path-effect
       effect="spiro"
       id="path-effect908"
       is_visible="true" />
    <inkscape:path-effect
       effect="spiro"
       id="path-effect904"
       is_visible="true" />
    <inkscape:path-effect
       effect="spiro"
       id="path-effect900"
       is_visible="true" />
    <inkscape:path-effect
       effect="spiro"
       id="path-effect876"
       is_visible="true" />
    <inkscape:path-effect
       effect="spiro"
       id="path-effect872"
       is_visible="true" />
    <linearGradient
       inkscape:collect="always"
       xlink:href="#linearGradient1581"
       id="linearGradient1702"
       x1="-610.40784"
       y1="280.62323"
       x2="-398.1532"
       y2="280.62323"
       gradientUnits="userSpaceOnUse"
       gradientTransform="matrix(-0.8910614,1.258232,-1.258773,-0.89067845,606.28287,1924.9374)" />
    <linearGradient
       inkscape:collect="always"
       id="linearGradient1581">
      <stop
         style="stop-color:#7cffcb;stop-opacity:1"
         offset="0"
         id="stop1577" />
      <stop
         style="stop-color:#2e6dff;stop-opacity:1"
         offset="1"
         id="stop1579" />
    </linearGradient>
    <linearGradient
       inkscape:collect="always"
       xlink:href="#linearGradient1581"
       id="linearGradient1710"
       x1="-578.58362"
       y1="557.94067"
       x2="-402.22522"
       y2="557.94067"
       gradientUnits="userSpaceOnUse"
       gradientTransform="matrix(-1.0110823,-0.03496359,-0.01939016,1.8231444,1165.7781,18.70099)" />
    <linearGradient
       gradientTransform="matrix(-0.01258249,0.19296213,-0.1930451,-0.01257708,1837.6842,519.39976)"
       inkscape:collect="always"
       xlink:href="#linearGradient1581"
       id="linearGradient1587-8"
       x1="1485.3735"
       y1="255.98141"
       x2="2268.1589"
       y2="-301.12323"
       gradientUnits="userSpaceOnUse" />
    <linearGradient
       inkscape:collect="always"
       xlink:href="#linearGradient1581"
       id="linearGradient1654"
       gradientUnits="userSpaceOnUse"
       gradientTransform="matrix(-0.01258249,0.19296213,-0.1930451,-0.01257708,267.98956,364.3165)"
       x1="1485.3735"
       y1="255.98141"
       x2="2268.1589"
       y2="-301.12323" />
    <linearGradient
       gradientTransform="matrix(-0.06514725,0.18207704,0.18215532,0.06511925,230.27525,258.96458)"
       inkscape:collect="always"
       xlink:href="#linearGradient1581"
       id="linearGradient1587-8-0"
       x1="1485.3735"
       y1="255.98141"
       x2="2268.1589"
       y2="-301.12323"
       gradientUnits="userSpaceOnUse" />
    <linearGradient
       inkscape:collect="always"
       xlink:href="#linearGradient1581"
       id="linearGradient1718"
       x1="-383.95975"
       y1="483.99295"
       x2="-252.80853"
       y2="315.56226"
       gradientUnits="userSpaceOnUse"
       gradientTransform="matrix(-0.83024235,-2.4843635,-2.4854317,0.82988555,1543.5547,-1078.2115)" />
    <linearGradient
       inkscape:collect="always"
       xlink:href="#linearGradient1581"
       id="linearGradient939"
       x1="2295.2722"
       y1="612.10864"
       x2="2524.3125"
       y2="612.10864"
       gradientUnits="userSpaceOnUse"
       gradientTransform="matrix(0.66109458,-0.21143264,-0.21143264,-0.66109458,262.6392,1293.3769)" />
    <linearGradient
       inkscape:collect="always"
       xlink:href="#linearGradient1581"
       id="linearGradient959"
       x1="2604.0916"
       y1="792.32062"
       x2="3092.095"
       y2="728.67853"
       gradientUnits="userSpaceOnUse" />
    <linearGradient
       inkscape:collect="always"
       xlink:href="#linearGradient1581"
       id="linearGradient967"
       x1="2580.9731"
       y1="1150.7728"
       x2="2750.4211"
       y2="1150.7728"
       gradientUnits="userSpaceOnUse"
       gradientTransform="matrix(-0.86203052,-1.1480257,1.1480257,-0.86203052,2454.4741,4274.8733)" />
    <linearGradient
       inkscape:collect="always"
       xlink:href="#linearGradient1581"
       id="linearGradient975"
       x1="2535.6572"
       y1="922.43304"
       x2="2157.6389"
       y2="861.8548"
       gradientUnits="userSpaceOnUse"
       gradientTransform="matrix(-0.50635364,-0.06085838,-0.05056637,0.5139028,3287.375,-193.78412)" />
  </defs>
  <sodipodi:namedview
     id="base"
     pagecolor="#ffffff"
     bordercolor="#666666"
     borderopacity="1.0"
     inkscape:pageopacity="0.0"
     inkscape:pageshadow="2"
     inkscape:zoom="0.53333333"
     inkscape:cx="1373.4885"
     inkscape:cy="627.17679"
     inkscape:document-units="px"
     inkscape:current-layer="layer1"
     showgrid="false"
     inkscape:window-width="1920"
     inkscape:window-height="1003"
     inkscape:window-x="-9"
     inkscape:window-y="-9"
     inkscape:window-maximized="1" />
  <metadata
     id="metadata1729">
    <rdf:RDF>
      <cc:Work
         rdf:about="">
        <dc:format>image/svg+xml</dc:format>
        <dc:type
           rdf:resource="http://purl.org/dc/dcmitype/StillImage" />
        <dc:title />
      </cc:Work>
    </rdf:RDF>
  </metadata>
  <g
     inkscape:label="Layer 1"
     inkscape:groupmode="layer"
     id="layer1">
    <rect
       style="opacity:1;fill:#2e6dff;fill-opacity:1;stroke:none;stroke-width:17.16733551;stroke-linecap:round;stroke-linejoin:miter;stroke-miterlimit:4;stroke-dasharray:none;stroke-dashoffset:0;stroke-opacity:1;paint-order:fill markers stroke"
       id="rect1425"
       width="1925.167"
       height="1202.2865"
       x="0.95810294"
       y="0.069304466" />
    <path
       style="fill:url(#linearGradient975);fill-opacity:1;stroke:none;stroke-width:0.51312172px;stroke-linecap:butt;stroke-linejoin:miter;stroke-opacity:1"
       d="m 1979.9457,225.99875 c 16.8875,6.45356 30.6256,8.25837 53.5352,-10.53995 20.7788,-17.04992 33.2273,-75.10569 51.9031,-94.50192 5.6539,-5.87183 11.4841,-11.62586 16.2414,-18.27347 4.7572,-6.647522 8.4388,-14.327262 9.1825,-22.571802 0.3718,-4.1223 -0.01,-8.34653 -1.2879,-12.30641 -1.2829,-3.96006 -3.4863,-7.64803 -6.4909,-10.50766 -3.0048,-2.85943 -6.8202,-4.86572 -10.86,-5.50737 -4.04,-0.64165 -8.2876,0.11713 -11.7308,2.27479 -3.4752,2.17764 -6.0143,5.66842 -7.626,9.48893 -1.6115,3.82084 -2.3561,7.97568 -2.8068,12.12706 -0.901,8.30284 -0.7455,17.02855 -4.362,24.479952 -2.634,5.42709 -7.1309,9.75378 -12.2729,12.79299 -5.1419,3.03931 -10.9186,4.85827 -16.7704,6.076 -11.7038,2.43443 -23.9426,2.56909 -35.2372,6.45297 -11.5073,3.95695 -21.509,11.71134 -29.1278,21.27948 -7.6189,9.56795 -12.938,20.90025 -16.5311,32.70563 -4.0733,23.26257 7.937,37.97635 16.387,42.70803 3.7101,2.30643 5.1603,2.71445 7.8546,3.82275 z"
       id="path906"
       inkscape:connector-curvature="0"
       sodipodi:nodetypes="cccccccccccsccccccc" />
    <path
       style="fill:url(#linearGradient939);fill-opacity:1;stroke:none;stroke-width:0.69408196px;stroke-linecap:butt;stroke-linejoin:miter;stroke-opacity:1"
       d="m 1683.2654,224.17559 c -11.3272,2.30551 -21.3987,9.6648 -27.6205,19.40693 -6.2218,9.74214 -8.6693,21.70176 -7.4673,33.19859 1.2022,11.4967 5.9447,22.50435 12.9183,31.72314 6.9738,9.21876 16.1228,16.68625 26.2177,22.31767 11.7552,6.55745 24.6925,10.64425 37.1358,15.77713 12.4431,5.1332 24.7552,11.57711 33.6081,21.71632 9.152,10.48163 13.9018,24.14476 16.4262,37.82871 2.5245,13.68399 3.0256,27.65525 4.8307,41.45242 0.94,7.18415 2.2373,14.40678 1.6398,21.62752 -0.2986,3.61041 -1.0799,7.20283 -2.5644,10.50741 -1.4845,3.3046 -3.6918,6.31706 -6.5686,8.51908 -4.7691,3.65076 -11.0798,4.84179 -17.0665,4.36025 -5.987,-0.48155 -11.7381,-2.49784 -17.3136,-4.73111 -5.5755,-2.23315 -11.0844,-4.71063 -16.9058,-6.18956 -5.821,-1.47885 -12.069,-1.91293 -17.7772,-0.0448 -4.8587,1.59004 -9.1351,4.82687 -12.1246,8.97395 -2.9894,4.14706 -4.7006,9.17468 -5.0338,14.27603 -0.5855,8.97046 3.1181,17.96261 9.2329,24.55213 6.1145,6.58949 14.4753,10.869 23.2358,12.8857 17.5124,4.03147 36.3991,-0.88808 51.1732,-11.11846 14.7743,-10.23039 25.678,-25.36774 33.0214,-41.76933 18.1389,-40.51341 15.0938,-88.03471 0.7647,-130.047 -11.4399,-33.54103 -29.6184,-64.44607 -50.3082,-93.21759 -8.3717,-11.64166 -17.3467,-23.14668 -28.9879,-31.51928 -5.8204,-4.18614 -12.2804,-7.54465 -19.1827,-9.484 -6.9023,-1.93946 -14.258,-2.43164 -21.2835,-1.00187 z"
       id="path928"
       inkscape:connector-curvature="0" />
    <path
       style="fill:url(#linearGradient959);fill-opacity:1;stroke:none;stroke-width:1px;stroke-linecap:butt;stroke-linejoin:miter;stroke-opacity:1"
       d="m 2606.25,869.99999 c -5.6798,-40.5327 3.0955,-83.908 28.4578,-116.03148 12.6811,-16.06173 29.3171,-29.08687 48.2313,-36.89974 18.9143,-7.81286 40.0912,-10.31586 60.1859,-6.44378 26.4192,5.09075 50.0844,20.73582 76.7261,24.49199 13.3209,1.87808 27.4998,0.52537 39.0936,-6.29768 5.797,-3.41153 10.8481,-8.16258 14.3131,-13.92774 3.4649,-5.76516 5.2997,-12.5542 4.8672,-19.26657 -0.5583,-8.66416 -4.7817,-16.71517 -10.0304,-23.63114 -5.2487,-6.91596 -11.5605,-12.94857 -17.163,-19.58121 -5.6024,-6.63265 -10.592,-14.09183 -12.4949,-22.56286 -0.9515,-4.23551 -1.0997,-8.67991 -0.1567,-12.91731 0.9431,-4.2374 3.0049,-8.25848 6.095,-11.30748 4.6117,-4.55046 11.3177,-6.67732 17.787,-6.32701 6.4693,0.3503 12.6816,3.02462 17.8661,6.90991 10.3691,7.77059 16.4771,19.80466 22.4719,31.2921 9.586,18.36893 19.8839,36.71251 24.5919,56.8903 2.354,10.0889 3.2613,20.585 1.8723,30.85133 -1.3891,10.26634 -5.139,20.30355 -11.4642,28.50837 -8.9238,11.57559 -22.4364,18.88954 -36.4328,23.10019 -13.9963,4.21065 -28.6527,5.61391 -43.1563,7.42327 -14.5036,1.80937 -29.1455,4.09835 -42.5518,9.92044 -13.4064,5.82209 -25.6253,15.59612 -31.6091,28.9311 -4.0508,9.02723 -5.0467,19.19918 -4.2463,29.06118 0.8005,9.86199 3.3249,19.49754 6.0712,29.00319 2.7464,9.50565 5.732,18.97016 7.4938,28.70648 1.7618,9.73631 2.271,19.83578 0.056,29.47915 -3.4493,15.01894 -13.5804,28.18855 -26.7336,36.21725 -13.1532,8.0287 -29.1138,11.03391 -44.4288,9.3255 -15.3149,-1.70841 -29.9612,-7.98424 -42.3917,-17.09184 -12.4305,-9.10759 -22.699,-20.98008 -30.8209,-34.07591 -11.9632,-19.28951 -19.3501,-41.27154 -22.5,-63.75 z"
       id="path949"
       inkscape:connector-curvature="0"
       inkscape:path-effect="#path-effect951"
       inkscape:original-d="m 2606.25,869.99999 c -7.501,-21.249 91.251,-106.251 136.875,-159.375 45.624,-53.124 90.001,-10.001 135,-15 44.999,-4.999 -22.499,-60.001 -33.75,-90 -11.251,-29.99901 38.751,21.249 58.125,31.875 19.374,10.626 10.001,77.499 15,116.25 4.999,38.751 -102.499,46.249 -153.75,69.375 -51.251,23.126 6.251,77.499 9.375,116.25 3.124,38.751 -96.249,-3.751 -144.375,-5.625 -48.126,-1.874 -14.999,-42.501 -22.5,-63.75 z"
       transform="matrix(-1.7083956,-0.69352454,0.72461289,-1.7849772,5690.0805,3627.5858)" />
    <path
       style="fill:url(#linearGradient1718);fill-opacity:1;stroke:none;stroke-width:2.61987066px;stroke-linecap:butt;stroke-linejoin:miter;stroke-opacity:1"
       d="m 1144.4526,-227.32163 c 15.2199,21.42418 27.2493,45.30679 33.6413,70.79489 6.3914,25.48794 7.0079,52.62905 0.029,77.96295 -6.979,25.333706 -21.7755,48.736128 -42.776,64.541371 -21.0008,15.8055979 -48.2658,23.5921459 -74.2436,19.5677219 -26.587,-4.119154 -49.7409,-19.6605429 -74.09167,-31.0975919 -12.17505,-5.718661 -24.94671,-10.4972 -38.28891,-12.214233 -13.34209,-1.717306 -27.36084,-0.207625 -39.25686,6.070786 -8.9363,4.716051 -16.38865,11.961832 -22.17427,20.243282 -5.78564,8.2818949 -9.96862,17.5910209 -13.27132,27.137381 -6.60522,19.093082 -9.80226,39.286138 -17.22224,58.077967 -7.65942,19.398706 -20.07326,37.283636 -37.19609,49.199516 -17.12225,11.91561 -39.19214,17.36877 -59.44512,12.3601 -13.78016,-3.40755 -26.27714,-11.51689 -35.37129,-22.41235 -9.09433,-10.89501 -14.80527,-24.49023 -16.69867,-38.553002 -1.89351,-14.062606 -0.019,-28.555986 4.93378,-41.853753 4.95305,-13.297584 12.94211,-25.4011921 22.8773,-35.5357301 22.02291,-22.4648349 52.23606,-34.4454669 80.01607,-49.2167659 13.88983,-7.38565 27.44037,-15.663198 39.03198,-26.296081 11.59153,-10.633355 21.20097,-23.782168 25.90069,-38.790428 4.64912,-14.84723 4.32946,-30.73103 6.56234,-46.12757 6.10174,-42.07208 32.22422,-80.36287 68.05026,-103.27203 21.50907,-13.75452 46.50972,-22.2554 72.01822,-23.39906 25.5082,-1.14365 51.4582,5.21204 73.0007,18.9137 17.5889,11.18647 31.9041,26.9087 43.9745,43.89893 z"
       id="path1676"
       inkscape:connector-curvature="0" />
    <path
       style="fill:url(#linearGradient967);fill-opacity:1;stroke:none;stroke-width:1.43563914px;stroke-linecap:butt;stroke-linejoin:miter;stroke-opacity:1"
       d="m 1672.5591,81.99078 c 15.8469,15.28127 26.3873,35.96462 29.4378,57.76661 3.0511,21.80209 -1.4069,44.58401 -12.4503,63.62818 -11.0436,19.04413 -28.6024,34.22911 -49.0402,42.41025 -20.4381,8.18114 -43.6248,9.30626 -64.7588,3.14259 -18.5706,-5.41601 -35.0923,-16.08567 -52.6342,-24.23988 -8.7708,-4.07726 -17.8858,-7.55302 -27.3903,-9.34527 -9.5048,-1.7925 -19.4445,-1.85425 -28.7436,0.80618 -12.4728,3.56848 -23.2826,11.95251 -30.9535,22.41496 -7.6706,10.46268 -12.3441,22.91221 -14.8166,35.64748 -4.9446,25.471 -1.3403,51.70021 -0.4528,77.63159 0.5163,15.09238 0.085,30.36402 -3.6057,45.00742 -3.6903,14.64348 -10.8508,28.72043 -22.1376,38.75295 -5.6437,5.01608 -12.2718,8.96447 -19.4639,11.2634 -7.1922,2.29881 -14.9494,2.92292 -22.3684,1.51972 -7.4191,-1.40325 -14.4775,-4.86335 -19.9386,-10.07776 -5.4611,-5.21437 -9.2717,-12.19215 -10.4307,-19.65336 -1.0589,-6.81883 0.083,-13.86103 2.5159,-20.31846 2.4333,-6.45743 6.1197,-12.37633 10.2148,-17.93059 8.1898,-11.10862 18.1677,-21.04835 24.3762,-33.37437 8.3087,-16.49567 9.0911,-35.77221 7.5219,-54.17557 -1.5691,-18.40326 -5.3142,-36.64391 -5.43,-55.11354 -0.2414,-38.5101 15.7694,-76.27984 41.1146,-105.27482 25.3452,-28.99497 59.539,-49.51961 96.0743,-61.69562 55.6599,-18.54978 117.4904,-18.00675 172.816,1.5177"
       id="path910"
       inkscape:connector-curvature="0" />
    <path
       style="fill:#ffffff;fill-opacity:1;stroke:none;stroke-width:0.90843815px;stroke-linecap:butt;stroke-linejoin:miter;stroke-opacity:1"
       d="m 1372.0154,199.80057 c 65.4691,10.29902 132.0973,-1.13991 198.0342,-7.82174 65.937,-6.68184 135.3835,-8.00552 195.1981,20.52339 39.6246,18.8992 72.2319,49.64776 102.8428,81.10745 30.611,31.45969 60.2746,64.42015 96.3717,89.40138 68.6895,47.53707 159.4373,62.15505 239.2381,37.43114 79.8008,-24.724 146.6848,-88.61823 173.8695,-167.58409 23.9654,-69.61483 17.4388,-147.11403 -6.5527,-216.71993 -23.9915,-69.605896 -64.4576,-132.347226 -108.2851,-191.51548 -99.9904,-134.9897 -222.1138,-257.24599 -371.7979,-333.5716 -149.6841,-76.32561 -329.5024,-102.89582 -488.1772,-47.61833 -79.3375,27.63878 -152.0436,75.37507 -206.3238,139.47749 -54.2802,64.10242 -89.615,144.67549 -96.5836,228.36781 -6.9686,83.692319 15.0724,170.071275 64.0718,238.2919 48.9992,68.22063 125.0979,117.17439 208.0941,130.23061 z"
       id="path1405"
       inkscape:connector-curvature="0" />
    <path
       style="fill:url(#linearGradient1587-8-0);fill-opacity:1;stroke:none;stroke-width:0.19341314px;stroke-linecap:butt;stroke-linejoin:miter;stroke-opacity:1"
       d="m 182.4693,565.40358 c -2.62838,13.85751 -9.69969,26.38873 -15.7673,39.12247 -6.06772,12.73365 -11.31231,26.55484 -9.8792,40.58638 0.94932,9.29512 4.77832,18.03387 8.89313,26.4234 4.11471,8.38963 8.59841,16.69696 11.02045,25.72144 4.609,17.17269 1.03432,36.40537 -9.64582,50.62356 -10.68011,14.21835 -28.29012,23.03985 -46.07639,22.8255 C 105.33404,770.51741 90.258953,763.653 78.019042,753.85489 65.779251,744.05667 56.097316,731.44944 47.37299,718.42478 27.468776,688.70961 11.705313,655.47238 7.1296801,620.00542 2.5540571,584.53853 10.117794,546.6005 32.580884,518.76767 c 11.231482,-13.91646 26.018227,-25.06315 42.766249,-31.34411 16.748096,-6.28094 35.441037,-7.58463 52.725877,-2.98039 17.28476,4.60416 33.02846,15.21406 43.19752,29.92415 10.16899,14.71 14.53099,33.46894 11.19877,51.03626 z"
       id="path1405-3-7"
       inkscape:connector-curvature="0"
       inkscape:transform-center-x="77.100101"
       inkscape:transform-center-y="-310.67621" />
    <path
       inkscape:connector-curvature="0"
       id="path1652"
       d="m 190.06452,664.51839 c -3.0957,13.76079 -1.58701,28.0687 -1.0799,42.1639 0.50719,14.09529 -0.17319,28.8616 -7.06527,41.16911 -4.56561,8.15312 -11.55272,14.65205 -18.66332,20.71702 -7.1106,6.06507 -14.52706,11.90816 -20.33658,19.22805 -11.05508,13.92899 -15.41879,32.99819 -11.26878,50.28759 4.14991,17.28922 16.80436,32.37787 33.2119,39.24433 14.46464,6.0535 31.02729,5.74061 46.15414,1.60957 15.12673,-4.13114 29.02266,-11.85584 42.20565,-20.34396 30.07648,-19.3651 57.75292,-43.60692 76.04853,-74.33769 18.2956,-30.73075 26.43312,-68.54999 16.88128,-103.01245 -4.77591,-17.23127 -13.91534,-33.33259 -26.78849,-45.74746 -12.87324,-12.41485 -29.50949,-21.03454 -47.20167,-23.67335 -17.6921,-2.6388 -36.35696,0.84576 -51.53569,10.30684 -15.17862,9.46098 -26.63749,24.9438 -30.5618,42.3885 z"
       style="fill:url(#linearGradient1654);fill-opacity:1;stroke:none;stroke-width:0.19341314px;stroke-linecap:butt;stroke-linejoin:miter;stroke-opacity:1" />
    <path
       style="fill:url(#linearGradient1587-8);fill-opacity:1;stroke:none;stroke-width:0.19341314px;stroke-linecap:butt;stroke-linejoin:miter;stroke-opacity:1"
       d="m 1759.7592,819.60168 c -3.0958,13.76078 -1.587,28.06868 -1.0799,42.16386 0.5072,14.0953 -0.1732,28.8616 -7.0653,41.1692 -4.5656,8.15296 -11.5527,14.65196 -18.6632,20.71686 -7.1106,6.0652 -14.5272,11.9082 -20.3366,19.2281 -11.0551,13.929 -15.4189,32.9983 -11.2688,50.2876 4.1499,17.2892 16.8043,32.3778 33.2119,39.2444 14.4647,6.0535 31.0273,5.7406 46.1541,1.6096 15.1268,-4.1312 29.0227,-11.8559 42.2057,-20.3441 30.0764,-19.3651 57.7529,-43.6069 76.0485,-74.3376 18.2957,-30.7308 26.4331,-68.54996 16.8813,-103.01252 -4.7759,-17.23127 -13.9154,-33.33248 -26.7885,-45.74743 -12.8733,-12.41486 -29.5095,-21.03454 -47.2017,-23.67336 -17.6921,-2.6388 -36.3569,0.84577 -51.5357,10.30684 -15.1786,9.46098 -26.6375,24.9438 -30.5618,42.38855 z"
       id="path1405-3"
       inkscape:connector-curvature="0" />
    <path
       style="fill:url(#linearGradient1710);fill-opacity:1;stroke:none;stroke-width:1.3579495px;stroke-linecap:butt;stroke-linejoin:miter;stroke-opacity:1"
       d="m 1679.9272,850.36796 c 13.6153,0.22675 27.6006,3.6934 39.4386,15.82374 5.9189,6.06502 11.212,14.2758 15.0722,24.38758 3.8601,10.11182 6.2452,22.16272 6.382,34.43612 0.1275,11.4418 -1.6943,22.832 -4.8211,32.7909 -3.1267,9.9591 -7.526,18.521 -12.5429,25.5304 -10.034,14.0188 -22.2979,21.7275 -34.4875,28.1113 -12.1898,6.3836 -24.6561,11.7477 -36.023,21.9345 -5.6836,5.0934 -11.0678,11.395 -15.6737,19.2686 -4.6058,7.8733 -8.4227,17.3584 -10.7521,28.0038 -3.053,13.9512 -3.4616,29.3609 -2.8184,44.314 0.6434,14.9531 2.2943,29.7054 3.2225,44.6095 0.9281,14.9045 1.1139,30.2218 -1.1259,44.6657 -1.1197,7.2222 -2.8478,14.1701 -5.2706,20.2649 -2.423,6.0949 -5.5524,11.323 -9.2124,14.8841 -3.8884,3.784 -8.3301,5.6295 -12.7483,5.5583 -4.4182,-0.071 -8.8081,-2.0357 -12.7974,-5.4608 -7.9787,-6.8503 -14.1976,-19.3944 -18.1257,-33.6682 -3.9281,-14.2737 -5.6991,-30.2181 -6.302,-46.1155 -0.6026,-15.8973 -0.078,-31.8539 0.3706,-47.768 1.0483,-37.2875 1.6781,-74.814 5.8144,-111.3969 4.1364,-36.5828 12.0391,-72.6225 25.9392,-100.2943 10.6793,-21.25987 24.5924,-36.8733 39.5655,-46.56073 14.9732,-9.68724 30.9891,-13.58405 46.896,-13.31901 z"
       id="path1668"
       inkscape:connector-curvature="0" />
    <path
       style="fill:url(#linearGradient1702);fill-opacity:1;stroke:none;stroke-width:1.54190719px;stroke-linecap:butt;stroke-linejoin:miter;stroke-opacity:1"
       d="m 736.49911,1250.8144 c -4.87554,-14.1547 -3.83688,-29.8503 0.52683,-44.171 4.36353,-14.3207 11.87929,-27.4679 19.91852,-40.0983 8.03949,-12.6306 16.68214,-24.9167 23.6161,-38.1859 6.93379,-13.269 12.16234,-27.7197 12.75868,-42.6781 0.88292,-22.145 -9.07516,-44.4877 -26.19437,-58.5718 -17.11928,-14.0843 -41.01616,-19.5534 -62.53914,-14.2305 -16.69087,4.1279 -31.2679,14.1172 -44.95163,24.5239 -13.68347,10.4069 -27.08919,21.547 -42.77066,28.5955 -23.25738,10.4538 -50.64622,10.981 -74.55962,2.1287 -23.91322,-8.8523 -44.17646,-26.8384 -56.46779,-49.1716 -12.29145,-22.333 -16.65398,-48.7933 -12.94056,-74.0112 3.71348,-25.2179 15.36858,-49.0982 32.39569,-68.07324 29.17073,-32.50721 73.46574,-49.73058 117.15248,-49.52532 43.68645,0.20509 86.45673,16.90577 121.41576,43.09424 34.95922,26.18826 62.43511,61.47752 83.19258,99.90162 20.75792,38.4241 35.04799,80.0225 46.63815,122.1259 7.21446,26.2076 13.45259,52.9439 13.95253,80.121 0.49974,27.1771 -5.08845,55.0561 -19.9475,77.821 -7.42954,11.3824 -17.12229,21.3528 -28.60869,28.6248 -11.48659,7.2722 -24.78261,11.7958 -38.36232,12.474 -13.57972,0.678 -27.41148,-2.562 -38.99311,-9.6817 -11.58189,-7.1194 -20.80569,-18.1614 -25.23193,-31.012 z"
       id="path1672"
       inkscape:connector-curvature="0" />
    <path
       style="fill:#ffffff;fill-opacity:1;stroke:none;stroke-width:0.93876034px;stroke-linecap:butt;stroke-linejoin:miter;stroke-opacity:1"
       d="m -101.88484,373.52065 c 14.110838,21.9307 20.419968,48.17329 23.289576,74.22487 2.86959,26.0515 2.538823,52.36112 4.62621,78.48963 3.290876,41.19291 12.837867,82.41415 32.837925,118.38247 20.000057,35.96822 51.120388,66.40907 89.293695,80.50164 30.224745,11.15812 63.035434,11.72142 95.024024,15.0128 15.99432,1.64573 31.98902,4.0177 47.37776,8.75001 15.38873,4.73222 30.21328,11.90462 42.54037,22.40662 23.23379,19.79416 35.89025,49.97116 41.30443,80.31275 5.41418,30.34161 4.37473,61.42586 4.84571,92.26016 0.47098,30.8341 2.60443,62.2674 13.88596,90.8882 5.64076,14.3102 13.57345,27.7793 24.04655,38.9204 10.47308,11.1411 23.54585,19.9003 38.04897,24.3566 18.00144,5.5313 37.63964,4.2482 55.52175,-1.6704 17.88214,-5.9185 34.11232,-16.2864 48.54199,-28.5576 28.85932,-24.5428 50.69168,-56.4613 77.38894,-83.42 47.50242,-47.9675 111.27522,-79.6241 177.96319,-85.23599 87.06434,-7.32664 171.89872,28.55549 248.95017,70.45859 77.05152,41.9031 151.73262,91.0911 236.08682,114.2194 93.2561,25.5692 192.5962,17.4387 286.9003,-3.7784 94.3039,-21.217 185.3419,-55.1321 278.3946,-81.4576 51.0283,-14.4364 103.5974,-26.6799 156.4579,-23.3287 26.4303,1.6755 52.7483,7.3148 77.0024,18.134 24.2542,10.8193 46.4099,26.9246 63.145,47.8128 21.2786,26.5591 33.2373,60.3929 35.056,94.6126 1.8185,34.2198 -6.2894,68.7133 -21.7011,99.1825 -30.8237,60.9385 56.7938,186.4278 -6.7342,209.1675 -63.5282,22.7397 -135.7414,375.8281 -203.0745,374.6833 -67.3331,-1.1449 -224.604,-176.3065 -291.9147,-174.2019 -181.9731,5.6897 -340.693,-47.0914 -515.672,4.079 -87.48949,25.5852 -243.97868,-95.1322 -334.66266,-87.0679 -90.68389,8.0642 -314.69913,362.0782 -401.19462,333.2035 -150.08182,-50.1018 -271.13204,-165.226 -368.517802,-291.7901 -97.385768,-126.564 -44.812627,-627.163 -142.295538,-753.64965 -40.1576,-52.10554 -83.57576,-101.91939 -117.85612,-158.20584 -34.28036,-56.28643 -59.36372,-120.57631 -58.08293,-186.78622 0.64041,-33.105 8.00359,-66.26367 23.05831,-95.61654 15.05471,-29.35287 37.95718,-54.76832 66.31509,-70.99645 28.35791,-16.22803 62.19048,-22.93937 94.19004,-16.96715 31.99954,5.97215 61.78931,24.97077 79.61249,52.6711 z"
       id="path1448"
       inkscape:connector-curvature="0"
       sodipodi:nodetypes="ssscccccsscsccccsscsscccccscsscssssssccs" />
    <rect
       style="opacity:1;fill:#2e6dff;fill-opacity:1;stroke:none;stroke-width:9.23322105;stroke-linecap:round;stroke-linejoin:miter;stroke-miterlimit:4;stroke-dasharray:none;stroke-dashoffset:0;stroke-opacity:1;paint-order:fill markers stroke"
       id="rect1724"
       width="235.22282"
       height="32.35207"
       x="883.31055"
       y="-0.059977524" />
  </g>
</svg>
