<?xml version="1.0" encoding="UTF-8" standalone="no"?>
<!-- Created with Inkscape (http://www.inkscape.org/) -->

<svg
   xmlns:dc="http://purl.org/dc/elements/1.1/"
   xmlns:cc="http://creativecommons.org/ns#"
   xmlns:rdf="http://www.w3.org/1999/02/22-rdf-syntax-ns#"
   xmlns:svg="http://www.w3.org/2000/svg"
   xmlns="http://www.w3.org/2000/svg"
   xmlns:xlink="http://www.w3.org/1999/xlink"
   xmlns:sodipodi="http://sodipodi.sourceforge.net/DTD/sodipodi-0.dtd"
   xmlns:inkscape="http://www.inkscape.org/namespaces/inkscape"
   width="1920px"
   height="1500px"
   viewBox="0 0 1920 1500"
   version="1.1"
   id="SVGRoot"
   inkscape:version="0.92.4 (5da689c313, 2019-01-14)"
   sodipodi:docname="bg2.svg">
  <defs
     id="defs1726">
    <linearGradient
       inkscape:collect="always"
       xlink:href="#linearGradient1581"
       id="linearGradient1702"
       x1="-610.40784"
       y1="280.62323"
       x2="-398.1532"
       y2="280.62323"
       gradientUnits="userSpaceOnUse"
       gradientTransform="matrix(-0.8910614,1.258232,-1.258773,-0.89067845,606.28287,2016.9374)" />
    <linearGradient
       inkscape:collect="always"
       id="linearGradient1581">
      <stop
         style="stop-color:#7cffcb;stop-opacity:1"
         offset="0"
         id="stop1577" />
      <stop
         style="stop-color:#2e6dff;stop-opacity:1"
         offset="1"
         id="stop1579" />
    </linearGradient>
    <linearGradient
       inkscape:collect="always"
       xlink:href="#linearGradient1581"
       id="linearGradient1710"
       x1="-578.58362"
       y1="557.94067"
       x2="-402.22522"
       y2="557.94067"
       gradientUnits="userSpaceOnUse"
       gradientTransform="matrix(-1.0110823,-0.03496359,-0.01939016,1.8231444,1136.6099,121.30759)" />
    <linearGradient
       gradientTransform="matrix(-0.01258249,0.19296213,-0.1930451,-0.01257708,1840.3359,661.78112)"
       inkscape:collect="always"
       xlink:href="#linearGradient1581"
       id="linearGradient1587-8"
       x1="1485.3735"
       y1="255.98141"
       x2="2268.1589"
       y2="-301.12323"
       gradientUnits="userSpaceOnUse" />
    <linearGradient
       inkscape:collect="always"
       xlink:href="#linearGradient1581"
       id="linearGradient1654"
       gradientUnits="userSpaceOnUse"
       gradientTransform="matrix(-0.01258249,0.19296213,-0.1930451,-0.01257708,267.98956,456.3165)"
       x1="1485.3735"
       y1="255.98141"
       x2="2268.1589"
       y2="-301.12323" />
    <linearGradient
       gradientTransform="matrix(-0.06514725,0.18207704,0.18215532,0.06511925,230.27525,350.96458)"
       inkscape:collect="always"
       xlink:href="#linearGradient1581"
       id="linearGradient1587-8-0"
       x1="1485.3735"
       y1="255.98141"
       x2="2268.1589"
       y2="-301.12323"
       gradientUnits="userSpaceOnUse" />
    <linearGradient
       inkscape:collect="always"
       xlink:href="#linearGradient1581"
       id="linearGradient1718"
       x1="-383.95975"
       y1="483.99295"
       x2="-252.80853"
       y2="315.56226"
       gradientUnits="userSpaceOnUse"
       gradientTransform="matrix(-0.83024235,-2.4843635,-2.4854317,0.82988555,1528.5547,-1070.7115)" />
  </defs>
  <sodipodi:namedview
     id="base"
     pagecolor="#ffffff"
     bordercolor="#666666"
     borderopacity="1.0"
     inkscape:pageopacity="0.0"
     inkscape:pageshadow="2"
     inkscape:zoom="24.135911"
     inkscape:cx="1111.4014"
     inkscape:cy="1488.2086"
     inkscape:document-units="px"
     inkscape:current-layer="layer1"
     showgrid="false"
     inkscape:window-width="1920"
     inkscape:window-height="1003"
     inkscape:window-x="-9"
     inkscape:window-y="-9"
     inkscape:window-maximized="1" />
  <metadata
     id="metadata1729">
    <rdf:RDF>
      <cc:Work
         rdf:about="">
        <dc:format>image/svg+xml</dc:format>
        <dc:type
           rdf:resource="http://purl.org/dc/dcmitype/StillImage" />
        <dc:title></dc:title>
      </cc:Work>
    </rdf:RDF>
  </metadata>
  <g
     inkscape:label="Layer 1"
     inkscape:groupmode="layer"
     id="layer1">
    <rect
       style="opacity:1;fill:#2e6dff;fill-opacity:1;stroke:none;stroke-width:17.16733551;stroke-linecap:round;stroke-linejoin:miter;stroke-miterlimit:4;stroke-dasharray:none;stroke-dashoffset:0;stroke-opacity:1;paint-order:fill markers stroke"
       id="rect1425"
       width="1925.167"
       height="1202.2865"
       x="0.95810294"
       y="0.069304466" />
    <path
       style="fill:url(#linearGradient1718);fill-opacity:1;stroke:none;stroke-width:2.61987066px;stroke-linecap:butt;stroke-linejoin:miter;stroke-opacity:1"
       d="m 1129.4526,-219.82163 c 15.2199,21.42418 27.2493,45.30679 33.6413,70.79489 6.3914,25.48794 7.0079,52.62905 0.029,77.96295 -6.979,25.333706 -21.7755,48.736128 -42.776,64.541371 -21.0008,15.805598 -48.2658,23.592146 -74.2436,19.567722 -26.587,-4.119154 -49.74093,-19.660543 -74.09167,-31.097592 -12.17505,-5.718661 -24.94671,-10.4972 -38.28891,-12.214233 -13.34209,-1.717306 -27.36084,-0.207625 -39.25686,6.070786 -8.9363,4.716051 -16.38865,11.961832 -22.17427,20.243282 -5.78564,8.281895 -9.96862,17.591021 -13.27132,27.137381 -6.60522,19.093082 -9.80226,39.286138 -17.22224,58.077967 -7.65942,19.398706 -20.07326,37.283636 -37.19609,49.199516 -17.12225,11.91561 -39.19214,17.36877 -59.44512,12.3601 -13.78016,-3.40755 -26.27714,-11.51689 -35.37129,-22.41235 -9.09433,-10.89501 -14.80527,-24.49023 -16.69867,-38.553002 -1.89351,-14.062606 -0.019,-28.555986 4.93378,-41.853753 4.95305,-13.297584 12.94211,-25.401192 22.8773,-35.53573 22.02291,-22.464835 52.23606,-34.445467 80.01607,-49.216766 13.88983,-7.38565 27.44037,-15.663198 39.03198,-26.296081 11.59153,-10.633355 21.20097,-23.782168 25.90069,-38.790428 4.64912,-14.84723 4.32946,-30.73103 6.56234,-46.12757 6.10174,-42.07208 32.22422,-80.36287 68.05026,-103.27203 21.50907,-13.75452 46.50976,-22.2554 72.01822,-23.39906 25.5082,-1.14365 51.4582,5.21204 73.0007,18.9137 17.5889,11.18647 31.9041,26.9087 43.9745,43.89893 z"
       id="path1676"
       inkscape:connector-curvature="0" />
    <path
       style="fill:#ffffff;fill-opacity:1;stroke:none;stroke-width:0.90843815px;stroke-linecap:butt;stroke-linejoin:miter;stroke-opacity:1"
       d="m 1372.0154,275.80057 c 65.4691,10.29902 132.0973,-1.13991 198.0342,-7.82174 65.937,-6.68184 135.3835,-8.00552 195.1981,20.52339 39.6246,18.8992 72.2319,49.64776 102.8428,81.10745 30.611,31.45969 60.2746,64.42015 96.3717,89.40138 68.6895,47.53707 159.4373,62.15505 239.2381,37.43114 79.8008,-24.724 146.6848,-88.61823 173.8695,-167.58409 23.9654,-69.61483 17.4388,-147.11403 -6.5527,-216.71993 C 2347.0256,42.532274 2306.5595,-20.209056 2262.732,-79.377312 2162.7416,-214.36701 2040.6182,-336.6233 1890.9341,-412.94891 c -149.6841,-76.32561 -329.5024,-102.89582 -488.1772,-47.61833 -79.3375,27.63878 -152.0436,75.37507 -206.3238,139.47749 -54.2802,64.10242 -89.615,144.67549 -96.5836,228.36781 -6.9686,83.692319 15.0724,170.071275 64.0718,238.2919 48.9992,68.22063 125.0979,117.17439 208.0941,130.23061 z"
       id="path1405"
       inkscape:connector-curvature="0" />
    <path
       style="fill:url(#linearGradient1587-8-0);fill-opacity:1;stroke:none;stroke-width:0.19341314px;stroke-linecap:butt;stroke-linejoin:miter;stroke-opacity:1"
       d="m 182.4693,657.40358 c -2.62838,13.85751 -9.69969,26.38873 -15.7673,39.12247 -6.06772,12.73365 -11.31231,26.55484 -9.8792,40.58638 0.94932,9.29512 4.77832,18.03387 8.89313,26.4234 4.11471,8.38963 8.59841,16.69696 11.02045,25.72144 4.609,17.17269 1.03432,36.40537 -9.64582,50.62356 -10.68011,14.21835 -28.29012,23.03985 -46.07639,22.8255 C 105.33404,862.51741 90.258953,855.653 78.019042,845.85489 65.779251,836.05667 56.097316,823.44944 47.37299,810.42478 27.468776,780.70961 11.705313,747.47238 7.1296801,712.00542 2.5540571,676.53853 10.117794,638.6005 32.580884,610.76767 c 11.231482,-13.91646 26.018227,-25.06315 42.766249,-31.34411 16.748096,-6.28094 35.441037,-7.58463 52.725877,-2.98039 17.28476,4.60416 33.02846,15.21406 43.19752,29.92415 10.16899,14.71 14.53099,33.46894 11.19877,51.03626 z"
       id="path1405-3-7"
       inkscape:connector-curvature="0"
       inkscape:transform-center-x="77.100101"
       inkscape:transform-center-y="-310.67621" />
    <path
       inkscape:connector-curvature="0"
       id="path1652"
       d="m 190.06452,756.51839 c -3.0957,13.76079 -1.58701,28.0687 -1.0799,42.1639 0.50719,14.09529 -0.17319,28.8616 -7.06527,41.16911 -4.56561,8.15312 -11.55272,14.65205 -18.66332,20.71702 -7.1106,6.06507 -14.52706,11.90816 -20.33658,19.22805 -11.05508,13.92899 -15.41879,32.99819 -11.26878,50.28759 4.14991,17.28922 16.80436,32.37787 33.2119,39.24433 14.46464,6.0535 31.02729,5.74061 46.15414,1.60957 15.12673,-4.13114 29.02266,-11.85584 42.20565,-20.34396 30.07648,-19.3651 57.75292,-43.60692 76.04853,-74.33769 18.2956,-30.73075 26.43312,-68.54999 16.88128,-103.01245 -4.77591,-17.23127 -13.91534,-33.33259 -26.78849,-45.74746 -12.87324,-12.41485 -29.50949,-21.03454 -47.20167,-23.67335 -17.6921,-2.6388 -36.35696,0.84576 -51.53569,10.30684 -15.17862,9.46098 -26.63749,24.9438 -30.5618,42.3885 z"
       style="fill:url(#linearGradient1654);fill-opacity:1;stroke:none;stroke-width:0.19341314px;stroke-linecap:butt;stroke-linejoin:miter;stroke-opacity:1" />
    <path
       style="fill:url(#linearGradient1587-8);fill-opacity:1;stroke:none;stroke-width:0.19341314px;stroke-linecap:butt;stroke-linejoin:miter;stroke-opacity:1"
       d="m 1762.4109,961.98304 c -3.0958,13.76078 -1.587,28.06868 -1.0799,42.16386 0.5072,14.0953 -0.1732,28.8616 -7.0653,41.1692 -4.5656,8.153 -11.5527,14.652 -18.6632,20.7169 -7.1106,6.0652 -14.5272,11.9082 -20.3366,19.2281 -11.0551,13.929 -15.4189,32.9983 -11.2688,50.2876 4.1499,17.2892 16.8043,32.3778 33.2119,39.2444 14.4647,6.0535 31.0273,5.7406 46.1541,1.6096 15.1268,-4.1312 29.0227,-11.8559 42.2057,-20.3441 30.0764,-19.3651 57.7529,-43.6069 76.0485,-74.3376 18.2957,-30.7308 26.4331,-68.55 16.8813,-103.01256 -4.7759,-17.23127 -13.9154,-33.33248 -26.7885,-45.74743 -12.8733,-12.41486 -29.5095,-21.03454 -47.2017,-23.67336 -17.6921,-2.6388 -36.3569,0.84577 -51.5357,10.30684 -15.1786,9.46098 -26.6375,24.9438 -30.5618,42.38855 z"
       id="path1405-3"
       inkscape:connector-curvature="0" />
    <path
       style="fill:url(#linearGradient1710);fill-opacity:1;stroke:none;stroke-width:1.3579495px;stroke-linecap:butt;stroke-linejoin:miter;stroke-opacity:1"
       d="m 1650.759,952.97456 c 13.6153,0.22675 27.6006,3.6934 39.4386,15.82374 5.9189,6.06502 11.212,14.2758 15.0722,24.38758 3.8601,10.11182 6.2452,22.16272 6.382,34.43612 0.1275,11.4418 -1.6943,22.832 -4.8211,32.7909 -3.1267,9.9591 -7.526,18.521 -12.5429,25.5304 -10.034,14.0188 -22.2979,21.7275 -34.4875,28.1113 -12.1898,6.3836 -24.6561,11.7477 -36.023,21.9345 -5.6836,5.0934 -11.0678,11.395 -15.6737,19.2686 -4.6058,7.8733 -8.4227,17.3584 -10.7521,28.0038 -3.053,13.9512 -3.4616,29.3609 -2.8184,44.314 0.6434,14.9531 2.2943,29.7054 3.2225,44.6095 0.9281,14.9045 1.1139,30.2218 -1.1259,44.6657 -1.1197,7.2222 -2.8478,14.1701 -5.2706,20.2649 -2.423,6.0949 -5.5524,11.323 -9.2124,14.8841 -3.8884,3.784 -8.3301,5.6295 -12.7483,5.5583 -4.4182,-0.071 -8.8081,-2.0357 -12.7974,-5.4608 -7.9787,-6.8503 -14.1976,-19.3944 -18.1257,-33.6682 -3.9281,-14.2737 -5.6991,-30.2181 -6.302,-46.1155 -0.6026,-15.8973 -0.078,-31.8539 0.3706,-47.768 1.0483,-37.2875 1.6781,-74.814 5.8144,-111.3969 4.1364,-36.5828 12.0391,-72.6225 25.9392,-100.2943 10.6793,-21.25987 24.5924,-36.8733 39.5655,-46.56073 14.9732,-9.68724 30.9891,-13.58405 46.896,-13.31901 z"
       id="path1668"
       inkscape:connector-curvature="0" />
    <path
       style="fill:url(#linearGradient1702);fill-opacity:1;stroke:none;stroke-width:1.54190719px;stroke-linecap:butt;stroke-linejoin:miter;stroke-opacity:1"
       d="m 736.49911,1342.8144 c -4.87554,-14.1547 -3.83688,-29.8503 0.52683,-44.171 4.36353,-14.3207 11.87929,-27.4679 19.91852,-40.0983 8.03949,-12.6306 16.68214,-24.9167 23.6161,-38.1859 6.93379,-13.269 12.16234,-27.7197 12.75868,-42.6781 0.88292,-22.145 -9.07516,-44.4877 -26.19437,-58.5718 -17.11928,-14.0843 -41.01616,-19.5534 -62.53914,-14.2305 -16.69087,4.1279 -31.2679,14.1172 -44.95163,24.5239 -13.68347,10.4069 -27.08919,21.547 -42.77066,28.5955 -23.25738,10.4538 -50.64622,10.981 -74.55962,2.1287 -23.91322,-8.8523 -44.17646,-26.8384 -56.46779,-49.1716 -12.29145,-22.333 -16.65398,-48.7933 -12.94056,-74.0112 3.71348,-25.2179 15.36858,-49.0982 32.39569,-68.07324 29.17073,-32.50721 73.46574,-49.73058 117.15248,-49.52532 43.68645,0.20509 86.45673,16.90577 121.41576,43.09424 34.95922,26.18826 62.43511,61.47752 83.19258,99.90162 20.75792,38.4241 35.04799,80.0225 46.63815,122.1259 7.21446,26.2076 13.45259,52.9439 13.95253,80.121 0.49974,27.1771 -5.08845,55.0561 -19.9475,77.821 -7.42954,11.3824 -17.12229,21.3528 -28.60869,28.6248 -11.48659,7.2722 -24.78261,11.7958 -38.36232,12.474 -13.57972,0.678 -27.41148,-2.562 -38.99311,-9.6817 -11.58189,-7.1194 -20.80569,-18.1614 -25.23193,-31.012 z"
       id="path1672"
       inkscape:connector-curvature="0" />
    <path
       style="fill:#ffffff;fill-opacity:1;stroke:none;stroke-width:0.93876034px;stroke-linecap:butt;stroke-linejoin:miter;stroke-opacity:1"
       d="m -101.88484,465.52065 c 14.110838,21.9307 20.419968,48.17329 23.289576,74.22487 2.86959,26.0515 2.538823,52.36112 4.62621,78.48963 3.290876,41.19291 12.837867,82.41415 32.837925,118.38247 20.000057,35.96822 51.120388,66.40907 89.293695,80.50164 30.224745,11.15812 63.035434,11.72142 95.024024,15.0128 15.99432,1.64573 31.98902,4.0177 47.37776,8.75001 15.38873,4.73222 30.21328,11.90462 42.54037,22.40662 23.23379,19.79416 35.89025,49.97116 41.30443,80.31275 5.41418,30.34161 4.37473,61.42586 4.84571,92.26016 0.47098,30.8341 2.60443,62.2674 13.88596,90.8882 5.64076,14.3102 13.57345,27.7793 24.04655,38.9204 10.47308,11.1411 23.54585,19.9003 38.04897,24.3566 18.00144,5.5313 37.63964,4.2482 55.52175,-1.6704 17.88214,-5.9185 34.11232,-16.2864 48.54199,-28.5576 28.85932,-24.5428 50.69168,-56.4613 77.38894,-83.42 47.50242,-47.9675 111.27522,-79.6241 177.96319,-85.23599 87.06434,-7.32664 171.89872,28.55549 248.95017,70.45859 77.05152,41.9031 151.73262,91.0911 236.08682,114.2194 93.2561,25.5692 192.5962,17.4387 286.9003,-3.7784 94.3039,-21.217 185.3419,-55.1321 278.3946,-81.4576 51.0283,-14.4364 103.5974,-26.6799 156.4579,-23.3287 26.4303,1.6755 52.7483,7.3148 77.0024,18.134 24.2542,10.8193 46.4099,26.9246 63.145,47.8128 21.2786,26.5591 33.2373,60.3929 35.056,94.6126 1.8185,34.2198 -6.2894,68.7133 -21.7011,99.1825 -30.8237,60.9385 56.7938,186.4278 -6.7342,209.1675 -63.5282,22.7397 -135.7414,375.8281 -203.0745,374.6833 -67.3331,-1.1449 -224.604,-176.3065 -291.9147,-174.2019 -181.9731,5.6897 -340.693,-47.0914 -515.672,4.079 -87.48949,25.5852 -243.97868,-95.1322 -334.66266,-87.0679 -90.68389,8.0642 -314.69913,362.0782 -401.19462,333.2035 -150.08182,-50.1018 -271.13204,-165.226 -368.517802,-291.7901 -97.385768,-126.564 -44.812627,-627.163 -142.295538,-753.64965 -40.1576,-52.10554 -83.57576,-101.91939 -117.85612,-158.20584 -34.28036,-56.28643 -59.36372,-120.57631 -58.08293,-186.78622 0.64041,-33.105 8.00359,-66.26367 23.05831,-95.61654 15.05471,-29.35287 37.95718,-54.76832 66.31509,-70.99645 28.35791,-16.22803 62.19048,-22.93937 94.19004,-16.96715 31.99954,5.97215 61.78931,24.97077 79.61249,52.6711 z"
       id="path1448"
       inkscape:connector-curvature="0"
       sodipodi:nodetypes="ssscccccsscsccccsscsscccccscsscssssssccs" />
    <rect
       style="opacity:1;fill:#2e6dff;fill-opacity:1;stroke:none;stroke-width:9.23322105;stroke-linecap:round;stroke-linejoin:miter;stroke-miterlimit:4;stroke-dasharray:none;stroke-dashoffset:0;stroke-opacity:1;paint-order:fill markers stroke"
       id="rect1724"
       width="235.22282"
       height="32.35207"
       x="868.54492"
       y="-0.52872753" />
  </g>
</svg>
